<?xml version="1.0" encoding="UTF-8" standalone="no"?>
<!-- Created with Inkscape (http://www.inkscape.org/) -->

<svg
   version="1.1"
   id="svg1"
   width="1000.08"
   height="666.84003"
   viewBox="0 0 1000.08 666.84003"
   sodipodi:docname="torn_edge.svg"
   inkscape:export-filename="torn_edge.png"
   inkscape:export-xdpi="287.97696"
   inkscape:export-ydpi="287.97696"
   inkscape:version="1.3.2 (091e20e, 2023-11-25, custom)"
   xmlns:inkscape="http://www.inkscape.org/namespaces/inkscape"
   xmlns:sodipodi="http://sodipodi.sourceforge.net/DTD/sodipodi-0.dtd"
   xmlns="http://www.w3.org/2000/svg"
   xmlns:svg="http://www.w3.org/2000/svg">
  <defs
     id="defs1" />
  <sodipodi:namedview
     id="namedview1"
     pagecolor="#505050"
     bordercolor="#eeeeee"
     borderopacity="1"
     inkscape:showpageshadow="0"
     inkscape:pageopacity="0"
     inkscape:pagecheckerboard="0"
     inkscape:deskcolor="#505050"
     inkscape:zoom="1.8853635"
     inkscape:cx="545.25294"
     inkscape:cy="307.10258"
     inkscape:window-width="3840"
     inkscape:window-height="2036"
     inkscape:window-x="3828"
     inkscape:window-y="-12"
     inkscape:window-maximized="1"
     inkscape:current-layer="g1" />
  <g
     inkscape:groupmode="layer"
     inkscape:label="Image"
     id="g1">
    <path
       style="fill:#f5f5f5;fill-opacity:1"
       d="M 0,333.42001 V 0 L 500.07001,0.02998561 1000.14,0.05997122 500.12997,0.09 0.11992681,0.12002878 0.14996341,196.39176 0.18,392.66349 l 2.5656589,1.36561 2.565659,1.36561 2.4743411,-0.70754 2.474341,-0.70753 2.46,-0.0785 2.46,-0.0785 2.04,1.06082 2.04,1.06082 1.708129,2.57791 c 1.204753,1.81821 1.782558,2.58962 1.960697,2.61765 0.138912,0.0219 1.553329,-0.10675 3.143148,-0.28582 l 2.890581,-0.32557 2.13729,0.70148 2.137291,0.70148 0.968914,2.90684 0.968914,2.90683 2.302518,0.76276 2.302519,0.76276 1.182026,2.31242 1.182027,2.31242 2.258005,1.50478 2.258005,1.50478 3.706399,-1.46321 3.7064,-1.4632 1.613569,1.09599 1.613569,1.09598 1.447417,1.91631 c 1.215019,1.60863 7.001584,8.29742 7.105718,8.21362 0.01822,-0.0147 0.328387,-2.28368 0.689251,-5.04225 l 0.656117,-5.0156 0.534759,-0.85127 c 0.294117,-0.4682 0.928954,-1.43997 1.410748,-2.15949 l 0.87599,-1.30822 2.94,-1.59732 c 1.617,-0.87852 3.002769,-1.57583 3.079486,-1.54958 0.108497,0.0371 2.310047,1.72409 5.276623,4.04326 0.08748,0.0684 0.923546,-0.3206 2.34,-1.08871 l 2.203891,-1.19511 1.62,0.84761 c 0.891001,0.46619 2.160063,1.13517 2.820139,1.48661 l 1.200138,0.639 1.732779,-3.62466 c 0.953029,-1.99357 1.746971,-3.64467 1.764317,-3.66912 0.01735,-0.0245 1.115026,0.79905 2.43929,1.83 1.324264,1.03095 2.462577,1.87446 2.529585,1.87446 0.06701,0 1.207411,-0.57052 2.534221,-1.26781 l 2.4124,-1.26781 2.85233,1.14781 c 1.56879,0.63129 2.89789,1.14603 2.95357,1.14385 0.0557,-0.002 1.06807,-1.56817 2.24976,-3.48 1.18168,-1.91182 2.16213,-3.47604 2.17877,-3.47604 0.0166,0 0.9007,-0.30069 1.96458,-0.66821 1.06388,-0.36751 2.00521,-0.65101 2.09185,-0.63 0.0866,0.021 1.60859,1.60421 3.38211,3.51821 1.77353,1.914 3.26348,3.48 3.31101,3.48 0.0475,0 1.09795,-1.431 2.33426,-3.18 1.23632,-1.749 2.26294,-3.19936 2.28138,-3.22302 0.0184,-0.0237 1.07051,-0.35672 2.33792,-0.74013 2.23209,-0.67525 2.38008,-0.70327 4.71699,-0.89297 l 2.4126,-0.19585 2.91499,1.51691 c 1.60325,0.8343 2.98025,1.49079 3.06,1.45887 0.0798,-0.0319 1.09001,-1.27571 2.24501,-2.764 1.155,-1.48828 2.14073,-2.6955 2.1905,-2.68272 0.0498,0.0128 1.27872,1.0669 2.73098,2.34248 l 2.64047,2.31923 2.36903,-2.06864 c 1.30296,-1.13776 2.48003,-2.16755 2.61571,-2.28842 0.24097,-0.21468 0.29614,-0.20324 2.38086,0.49409 l 2.13418,0.71387 2.17913,1.75846 c 1.57812,1.27346 2.44392,1.88318 3.13914,2.2107 0.528,0.24873 1.58783,0.74944 2.35518,1.11268 l 1.39519,0.66043 2.97276,-1.90598 c 1.63501,-1.0483 3.00518,-1.90491 3.04482,-1.90359 0.0396,0.001 0.87017,0.77083 1.84565,1.71 1.49339,1.43782 2.0337,2.06523 3.42,3.9713 l 1.6464,2.2637 2.33596,1.2091 2.33596,1.2091 2.73072,-0.20408 2.73072,-0.20408 2.37332,0.44198 2.37332,0.44198 2.64,-0.205 c 1.452,-0.11275 3.747,-0.36854 5.1,-0.56842 2.0719,-0.30609 2.8121,-0.47569 4.69181,-1.07502 l 2.2318,-0.71159 2.23745,0.83159 2.23745,0.83158 2.67075,0.31332 c 1.46891,0.17233 3.86368,0.4904 5.32172,0.70684 l 2.65097,0.39352 2.32903,-1.94011 c 1.28096,-1.06705 3.04944,-2.58907 3.92994,-3.38226 l 1.60092,-1.44215 2.77908,-0.0799 2.77908,-0.0799 1.75582,-1.82698 1.75581,-1.82697 2.86419,-0.42362 2.86418,-0.42361 0.54,-3.58043 0.54,-3.58042 2.35154,0.0857 c 3.18633,0.11612 3.17949,0.11656 6.10415,-0.3908 l 2.57568,-0.44682 0.56752,-3.78 c 0.31214,-2.079 0.57058,-3.82628 0.57432,-3.88284 0.0119,-0.18077 0.3588,0.0174 3.45498,1.97365 1.66995,1.05514 3.10576,1.94509 3.19068,1.97768 0.17956,0.0689 3.66776,-2.66825 6.23441,-4.89207 0.97531,-0.84504 1.83125,-1.53642 1.9021,-1.53642 0.0709,0 1.39743,0.891 2.94797,1.98 1.55053,1.089 2.87035,1.98 2.93294,1.98 0.0626,0 1.07015,-0.7965 2.23904,-1.77 1.16888,-0.9735 2.2073,-1.83389 2.30758,-1.91198 0.14125,-0.10997 0.7091,-0.0923 2.51972,0.0784 l 2.33738,0.22037 2.46,0.95435 c 1.97226,0.76513 2.51947,0.93364 2.76,0.84989 0.165,-0.0574 2.45719,-1.17861 5.09375,-2.49148 l 4.79376,-2.38703 0.66624,0.52035 c 3.04913,2.38143 3.68896,2.85774 3.95845,2.94685 0.16929,0.056 1.4688,0.32163 2.8878,0.59035 l 2.58,0.48859 1.61553,-1.71434 c 0.88855,-0.94288 2.13055,-2.24032 2.76,-2.8832 l 1.14447,-1.16886 2.18656,1.19886 c 1.20261,0.65938 2.27324,1.19887 2.37918,1.19887 0.10594,0 1.31477,-0.33185 2.68628,-0.73743 l 2.49365,-0.73743 4.84717,0.61062 c 4.84338,0.61015 4.84904,0.6112 7.27277,1.34174 l 2.42561,0.73111 2.37439,-0.23817 c 2.30455,-0.23116 2.37968,-0.23167 2.55439,-0.0173 0.47801,0.58641 4.72203,5.16675 4.78635,5.16566 0.0405,-6.9e-4 1.17592,-0.62169 2.52315,-1.38 1.34722,-0.75832 2.4978,-1.37875 2.55683,-1.37875 0.059,0 1.20861,0.97498 2.55462,2.16664 1.34601,1.19165 2.49043,2.15475 2.54317,2.14022 0.0527,-0.0145 1.19199,-1.48902 2.53168,-3.27664 1.3397,-1.78763 2.5007,-3.26481 2.58,-3.28264 0.0793,-0.0178 1.11563,0.94067 2.30295,2.13 1.18731,1.18933 2.21331,2.16209 2.28,2.16169 0.0667,-4e-4 1.33975,-0.47883 2.82903,-1.06319 2.25994,-0.88674 3.07048,-1.27584 4.90069,-2.35259 1.22167,-0.71873 2.23833,-1.24436 2.29548,-1.18681 0.0564,0.0568 1.13627,1.48032 2.39969,3.16332 1.26341,1.683 2.35995,3.04207 2.43674,3.02016 0.0768,-0.0219 1.35462,-0.78597 2.83962,-1.69791 l 2.7,-1.65808 2.22984,-0.43209 c 2.10147,-0.40721 2.36775,-0.43208 4.62513,-0.43208 h 2.39529 l 2.45487,1.46104 2.45487,1.46105 2.7,-0.21182 c 2.69402,-0.21136 2.70534,-0.21343 5.11281,-0.93518 l 2.41282,-0.72334 2.14718,0.68518 c 1.18095,0.37685 3.38919,1.13271 4.90719,1.67969 l 2.76,0.99451 2.52,0.25143 c 2.06256,0.20578 2.98833,0.23902 5.1,0.18308 l 2.58,-0.0683 2.41553,-0.90282 2.41554,-0.90282 2.43215,0.56022 c 1.33768,0.30812 2.50073,0.5339 2.58455,0.50174 0.0838,-0.0322 1.20647,-0.79089 2.49478,-1.68605 1.28831,-0.89517 2.38627,-1.62733 2.43991,-1.62704 0.0537,3e-4 1.03496,1.0533 2.1807,2.34 1.14574,1.28671 2.09074,2.33906 2.1,2.33856 0.009,-4.9e-4 1.14581,-0.13344 2.52566,-0.29545 1.37985,-0.162 2.56785,-0.25924 2.64,-0.21608 0.0721,0.0432 1.09121,0.79939 2.26458,1.68052 1.17336,0.88113 2.20325,1.62886 2.28862,1.66162 0.12537,0.0481 3.16205,-1.58724 4.83171,-2.60202 l 0.37373,-0.22715 2.08392,3.4778 c 1.59424,2.6606 2.11585,3.44301 2.21982,3.32973 1.62634,-1.7719 5.66436,-5.90806 5.76787,-5.90806 0.0772,0 0.98832,1.09717 2.02474,2.43816 l 1.8844,2.43817 0.43589,-0.0652 c 0.23975,-0.0359 1.41789,-0.17759 2.6181,-0.31494 l 2.18221,-0.24971 2.25779,0.98514 c 1.73566,0.75732 2.83288,1.3416 4.74453,2.5265 l 2.48673,1.54134 2.70942,-1.49971 2.70942,-1.49972 h 2.52728 2.52728 l 2.31091,-0.55924 2.31091,-0.55923 2.49606,1.39378 c 1.4352,0.80141 2.55887,1.35785 2.64385,1.30923 0.0813,-0.0465 0.9496,-0.84378 1.9296,-1.77174 0.97999,-0.92796 2.03255,-1.91503 2.339,-2.19348 l 0.55719,-0.50628 2.21248,1.54383 c 1.21687,0.84911 2.26748,1.57782 2.33469,1.61936 0.0672,0.0416 1.35886,-0.22731 2.87033,-0.59746 l 2.74812,-0.67299 1.92,-1.50527 c 1.056,-0.8279 2.001,-1.49924 2.1,-1.49187 0.099,0.007 1.26,0.39877 2.58,0.86979 2.37124,0.84612 2.43523,0.86131 5.34,1.26763 1.617,0.22618 2.97189,0.41185 3.01086,0.41259 0.039,7.4e-4 1.11147,-0.7486 2.38331,-1.66521 l 2.31244,-1.66655 1.31791,-2.56345 c 0.72485,-1.40989 1.34088,-2.58696 1.36896,-2.6157 0.0281,-0.0288 1.37284,0.2071 2.98838,0.52411 l 2.93735,0.57637 1.65039,-1.56374 c 2.78406,-2.63788 2.43505,-2.08101 3.3826,-5.3972 0.45552,-1.59418 0.85709,-2.94524 0.8924,-3.00237 0.0353,-0.0571 1.34921,0.12774 2.9198,0.41081 1.57058,0.28307 2.97687,0.53033 3.1251,0.54947 0.23293,0.0301 0.47861,-0.30711 1.81079,-2.48519 l 1.54129,-2.52 1.881,-1.35359 1.881,-1.35358 2.75666,0.0993 c 2.67813,0.0964 2.83607,0.0889 5.54435,-0.26641 l 2.78769,-0.36569 1.724,-2.36902 1.724,-2.36903 2.70784,-1.627 c 1.48931,-0.89485 2.75083,-1.58378 2.80339,-1.53097 0.0526,0.0528 0.61146,1.3067 1.242,2.78642 l 1.14644,2.6904 -1.45577,2.5296 c -0.80067,1.39128 -1.53576,2.66872 -1.63353,2.83875 -0.17159,0.29843 -0.13176,0.39066 1.1491,2.66033 l 1.32685,2.35119 0.0844,2.69187 0.0844,2.69187 2.53908,1.58379 2.53909,1.58379 0.21632,2.4815 0.21633,2.48149 1.62471,1.67875 1.62471,1.67874 -0.076,1.92377 c -0.0418,1.05807 -0.11215,2.79839 -0.15631,3.86737 -0.0773,1.87104 -0.0718,1.94158 0.14822,1.88933 0.98025,-0.23284 7.692,-1.6127 7.84009,-1.61184 0.10363,6.1e-4 0.92556,0.63511 1.82653,1.41 1.63662,1.40762 1.64004,1.40975 3.75264,2.33769 l 2.11452,0.92879 2.15857,-0.19757 c 1.18722,-0.10867 2.17585,-0.17562 2.19695,-0.14879 0.0211,0.0268 0.89441,2.15479 1.94067,4.72879 1.04626,2.574 1.92325,4.70629 1.94885,4.73843 0.0256,0.0321 1.3166,-1.25036 2.86889,-2.85 1.55229,-1.59964 2.89576,-2.90843 2.98549,-2.90843 0.0897,0 1.17146,0.32095 2.40382,0.71322 l 2.24067,0.71322 2.5954,-1.29881 c 1.42748,-0.71435 3.37274,-1.796 4.3228,-2.40366 0.95007,-0.60767 1.79528,-1.1309 1.87826,-1.16274 0.13007,-0.0499 1.0473,0.96262 3.71297,4.09877 1.99159,2.34311 2.37707,2.75636 2.53964,2.72263 0.0991,-0.0206 1.26946,-0.44652 2.60091,-0.9466 2.34732,-0.88162 2.49865,-0.92112 4.98371,-1.30079 l 2.56287,-0.39156 1.93713,-1.99072 1.93712,-1.99072 2.51721,1.01888 c 1.38446,0.56038 2.65346,1.02023 2.82,1.02188 0.16653,0.002 1.39743,-0.11589 2.73533,-0.2612 l 2.43253,-0.26421 2.24747,-1.9002 2.24746,-1.90021 3.84,-1.90525 c 2.112,-1.04789 4.01744,-1.97261 4.23431,-2.05493 0.39112,-0.14848 0.41537,-0.13565 3.00001,1.58696 l 2.60571,1.73666 2.65628,-0.0949 2.65629,-0.0949 2.4437,-0.71598 c 1.74601,-0.51156 3.04646,-0.80809 4.55491,-1.03863 l 2.1112,-0.32265 2.29919,0.49325 c 1.26456,0.27128 2.37517,0.49325 2.46804,0.49325 0.0929,0 1.34115,-0.92423 2.77397,-2.05385 1.44978,-1.14299 2.63866,-1.99944 2.68075,-1.93116 0.0416,0.0675 0.55745,1.6262 1.14632,3.46384 0.58887,1.83764 1.08641,3.36171 1.10565,3.38682 0.0348,0.0454 5.02628,-0.54108 5.52457,-0.6491 0.24846,-0.0539 0.29661,0.0911 1.00962,3.04056 l 0.74871,3.09711 2.83039,0.45854 c 2.8137,0.45585 2.84489,0.46419 5.29038,1.41585 1.353,0.52652 3.486,1.30774 4.74,1.73604 1.254,0.42831 2.415,0.86415 2.58,0.96855 0.165,0.1044 0.95506,0.78428 1.75569,1.51084 l 1.4557,1.32101 0.60313,3.7063 c 0.33173,2.03847 0.62727,3.73044 0.65676,3.75993 0.0295,0.0295 1.61402,-0.27363 3.52117,-0.67359 3.18383,-0.66771 6.04897,-1.07624 7.5556,-1.07734 0.34731,-2.5e-4 0.98746,0.22835 2.22,0.79276 0.95257,0.43621 3.12155,1.27015 4.81996,1.8532 l 3.088,1.0601 1.40512,-1.94321 c 2.41931,-3.34578 2.61434,-3.58455 4.26045,-5.21593 l 1.60712,-1.59274 3.14016,0.96274 c 1.72709,0.5295 3.19923,0.96273 3.27142,0.96273 0.0722,0 1.05623,-0.68083 2.18675,-1.51295 1.91005,-1.4059 2.08582,-1.50847 2.48423,-1.44964 0.23581,0.0348 1.74664,0.33826 3.3574,0.67429 1.61076,0.33604 2.94031,0.59688 2.95456,0.57964 0.0142,-0.0172 0.66413,-1.48934 1.44421,-3.27134 l 1.41832,-3.24 1.61909,-1.74 c 0.89049,-0.957 1.63034,-1.75665 1.64411,-1.777 0.0138,-0.0203 1.46907,0.15698 3.234,0.39405 1.76494,0.23706 3.22021,0.41571 3.23394,0.39699 0.0137,-0.0187 0.53156,-1.51369 1.15072,-3.32215 0.61916,-1.80845 1.18816,-3.35052 1.26445,-3.4268 0.25127,-0.25128 4.63962,-1.37248 7.47588,-1.91006 1.53168,-0.29031 2.80136,-0.54746 2.8215,-0.57144 0.0202,-0.024 0.4278,-1.33959 0.90589,-2.92359 0.47808,-1.584 0.90572,-2.9193 0.95029,-2.96734 0.0446,-0.048 1.27274,-0.23436 2.72925,-0.41406 l 2.6482,-0.32673 3.61973,0.2828 c 1.99085,0.15554 3.65966,0.24332 3.70847,0.19507 0.0488,-0.0483 0.54773,-1.44718 1.10873,-3.10873 l 1.02,-3.02101 1.62,-0.0758 c 0.891,-0.0417 2.02931,-0.0822 2.52958,-0.09 l 0.90957,-0.0142 2.12711,-2.34 c 1.16991,-1.287 2.18774,-2.34 2.26185,-2.34 0.1807,0 4.16664,1.05824 4.4753,1.18816 0.13387,0.0563 1.39204,0.91907 2.79593,1.91715 1.40389,0.99808 2.57848,1.81469 2.61021,1.81469 0.0317,0 0.82738,-0.7155 1.76812,-1.59 3.86222,-3.59025 3.59745,-3.3726 3.80049,-3.12407 3.22988,3.95338 4.6016,5.54451 4.72047,5.47555 0.51283,-0.29749 5.74727,-4.19355 7.26467,-5.40719 1.01381,-0.81086 1.90688,-1.47429 1.9846,-1.47429 0.0777,0 1.28868,0.51505 2.69105,1.14456 l 2.54974,1.14457 2.54676,-0.70591 2.54676,-0.70591 1.4989,-1.54789 c 0.82439,-0.85135 1.69177,-1.73724 1.92751,-1.96866 0.23574,-0.23142 1.24445,-0.84134 2.24158,-1.35538 l 1.81296,-0.93461 3.49994,1.75077 c 1.92497,0.96293 3.54421,1.73451 3.59832,1.71462 0.0541,-0.0199 0.91797,-1.08916 1.91969,-2.37616 1.61566,-2.07578 2.02669,-2.51971 3.64011,-3.93149 1.39257,-1.21853 2.27454,-1.87135 3.76361,-2.78578 l 1.94482,-1.19429 2.6646,-0.60364 c 1.46553,-0.332 2.68414,-0.62319 2.70803,-0.64708 0.0239,-0.0239 0.15435,-1.81965 0.28991,-3.99058 0.13556,-2.17093 0.29014,-4.05774 0.34352,-4.1929 0.0546,-0.13833 0.82431,-0.68211 1.76068,-1.24392 l 1.66362,-0.99816 2.90943,0.38083 c 2.57092,0.33651 9.69963,0.81794 9.85222,0.66535 0.0244,-0.0244 0.14366,-1.65398 0.26505,-3.62134 0.1214,-1.96735 0.23706,-3.78987 0.25701,-4.05003 l 0.0363,-0.47302 2.04,-0.64686 2.04,-0.64686 3.4051,0.13478 c 1.8728,0.0741 3.41552,0.11908 3.42827,0.0999 0.0127,-0.0192 0.28231,-1.6009 0.59903,-3.5149 0.31672,-1.914 0.59253,-3.49852 0.6129,-3.52116 0.0204,-0.0226 1.36609,0.10968 2.99049,0.29405 l 2.95346,0.33522 2.00538,-1.98752 c 1.58657,-1.57246 2.39381,-2.26236 3.86537,-3.3035 1.84412,-1.30473 1.87728,-1.32186 3.88379,-2.00673 1.11309,-0.37992 2.06131,-0.64567 2.10716,-0.59056 0.0458,0.0551 0.85573,1.1397 1.79973,2.4102 0.94399,1.2705 1.75573,2.31 1.80386,2.31 0.0481,0 1.53253,-0.70552 3.29865,-1.56783 1.76612,-0.86231 3.22251,-1.55081 3.23641,-1.53 0.0139,0.0208 0.25264,1.46555 0.53053,3.21053 0.2779,1.74499 0.522,3.18944 0.54246,3.2099 0.0205,0.0204 0.78874,0.17294 1.7073,0.33885 0.91856,0.16591 1.79161,0.32899 1.94011,0.36239 l 0.26998,0.0607 0,160.79772 V 666.84003 H 500.04001 0 Z"
       id="path1" />
  </g>
</svg>
